***************************************************************

[IMG]http://www.hotimg.org/images/67363952943939111394.png[/IMG]

***************************************************************

[img]http://www.imagezon3.com/images/d6CG9.jpg[/img]

***************************************************************

FILM TITLE: The Rum Diary (2011)

***************************************************************

Genre:  Comedy | Drama | Romance   

Rated R for language, brief drug use and sexuality

Release:  30 December 2011 (Poland)

Director: Bruce Robinson

Writer: Bruce Robinson (screenplay), Hunter S. Thompson (novel)

Stars:  Johnny Depp, Giovanni Ribisi and Aaron Eckhart

Country:  USA

Language:  English | Spanish | German

Plot:
American journalist Paul Kemp takes on a freelance job in 
Puerto Rico for a local newspaper during the 1950s and struggles 
to find a balance between island culture and the expatriates 
who live there.

IMDB Rating: 6.4/10 from 17,369 users   Metascore: 56/100
 
http://www.imdb.com/title/tt0376136/

****************************************************************

[url=http://www.imagezon3.com/images/hZ9U1.png][img]http://www.imagezon3.com/images/thumbs/hZ9U1.png[/img][/url]
[url=http://www.imagezon3.com/images/Nh9Z.png][img]http://www.imagezon3.com/images/thumbs/Nh9Z.png[/img][/url]
[url=http://www.imagezon3.com/images/LKt5.png][img]http://www.imagezon3.com/images/thumbs/LKt5.png[/img][/url]
[url=http://www.imagezon3.com/images/p7dDF.png][img]http://www.imagezon3.com/images/thumbs/p7dDF.png[/img][/url]
[url=http://www.imagezon3.com/images/m9WoE.png][img]http://www.imagezon3.com/images/thumbs/m9WoE.png[/img][/url]

****************************************************************

General
Complete name                    : The Rum Diary 2011 720p BDRip XviD ac3 (avi) [GREYSHADOW].avi
Format                           : AVI
Format/Info                      : Audio Video Interleave
Format profile                   : OpenDML
File size                        : 3.81 GiB
Duration                         : 1h 59mn
Overall bit rate                 : 4547 Kbps
Writing library                  : VirtualDub build 32842/release

Video
ID                               : 0
Format                           : MPEG-4 Visual
Format profile                   : Simple@L5
Format settings, BVOP            : No
Format settings, QPel            : No
Format settings, GMC             : No warppoints
Format settings, Matrix          : Default (H.263)
Codec ID                         : XVID
Codec ID/Hint                    : XviD
Duration                         : 1h 59mn
Bit rate                         : 3898 Kbps
Width                            : 1280 pixels
Height                           : 688 pixels
Display aspect ratio             : 1.860
Frame rate                       : 23.976 fps
Color space                      : YUV
Chroma subsampling               : 4:2:0
Bit depth                        : 8 bits
Scan type                        : Progressive
Compression mode                 : Lossy
Bits/(Pixel*Frame)               : 0.185
Stream size                      : 3.27 GiB (86%)
Writing library                  : XviD 64

Audio
ID                               : 1
Format                           : AC-3
Format/Info                      : Audio Coding 3
Mode extension                   : CM (complete main)
Codec ID                         : 2000
Duration                         : 1h 59mn
Bit rate mode                    : Constant
Bit rate                         : 640 Kbps
Channel(s)                       : 6 channels
Channel positions                : Front: L C R, Side: L R, LFE
Sampling rate                    : 48.0 KHz
Bit depth                        : 16 bits
Compression mode                 : Lossy
Stream size                      : 549 MiB (14%)
Alignment                        : Aligned on interleaves
Interleave, duration             : 42 ms (1.00 video frame)
Interleave, preload duration     : 512 ms

****************************************************************

Video Source: The Rum Diary 2011 1080p Blu-Ray AVC DTS-HD MA5.1-HDChina (42.2GB)

Thanks: karantina7 (chdbits.org)

****************************************************************

I provide a small sample, so please download this to check your 
compatibility first if you are unsure.

****************************************************************

I am providing tutorials here :- 
http://tutorials4all.freeforums.org/index.php?sid=fb109f91dedb2901c4d0b39625c431f7
This is for opening my mkv encodes, remuxing to Bluray for PS3 or mkv or mp4 with 
additional or selected audio or subtitles which I will now start supplying, so if your
fed up finding the right encode to match your player - DO IT YOURSELF - it's simples.

I allow transfer of my encodes to any site, just give me credit (Thanks: GREYSHADOW)

****************************************************************